PathFileType	4	(X/Y/Z)	36_2_40_p1_0-402_filt_butterworth.trc
DataRate	CameraRate	NumFrames	NumMarkers	Units	OrigDataRate	OrigDataStartFrame	OrigNumFrames
45.0	45.0	6	27	m	45.0	201	402
Frame#	Time	RHip			RKnee			RAnkle			RBigToe			RSmallToe			RHeel			LHip			LKnee			LAnkle			LBigToe			LSmallToe			LHeel			Neck			Head			Nose			RShoulder			RElbow			RWrist			RThumb			RIndex			RPinky			LShoulder			LElbow			LWrist			LThumb			LIndex			LPinky			
		X1	Y1	Z1	X2	Y2	Z2	X3	Y3	Z3	X4	Y4	Z4	X5	Y5	Z5	X6	Y6	Z6	X7	Y7	Z7	X8	Y8	Z8	X9	Y9	Z9	X10	Y10	Z10	X11	Y11	Z11	X12	Y12	Z12	X13	Y13	Z13	X14	Y14	Z14	X15	Y15	Z15	X16	Y16	Z16	X17	Y17	Z17	X18	Y18	Z18	X19	Y19	Z19	X20	Y20	Z20	X21	Y21	Z21	X22	Y22	Z22	X23	Y23	Z23	X24	Y24	Z24	X25	Y25	Z25	X26	Y26	Z26	X27	Y27	Z27	
201	4.466666666666667	0.33035768136499055	0.5339088981944844	-0.14417588326132647	0.35807675659708516	0.6603156180653097	0.27910163431797136	0.3746177786288998	0.7344553023360643	0.7198764482277805	0.3334396500412655	0.5297517119921782	0.7541210908194679	0.40180181601766807	0.543084328696302	0.7499119111082224	0.34972583555947045	0.8386036914214906	0.7888076516668426	0.12275640538630042	0.551507256292025	-0.12857311222382622	0.14402919659972707	0.6360824016702498	0.30665103260324844	0.16876149663449772	0.7246469844442064	0.7180529008398279	0.19244307168022812	0.5416388191125738	0.7666176470859548	0.1347456831421224	0.5641471796526119	0.7675220730336128	0.18965692959663366	0.7821507136602535	0.7799465857043542	0.17285359819209994	0.4664927066232405	-0.7575918782084998	0.11370447106182571	0.34267686101356154	-1.0181903838568798	0.10806802105045159	0.33481014418938077	-0.8423615297763108	0.35313102837938243	0.46200211589027784	-0.6968831400916226	0.4264694494696633	0.49730628721147146	-0.4152205380011468	0.410192304085833	0.44096621916480166	-0.12569680187049406	0.33989173446345244	0.43484696420580005	-0.005468898440640937	0.3545184856178818	0.40967911199041657	0.003176582951690449	0.4028037034214937	0.4989415027404265	0.015283371895798963	0.01341494668239029	0.5291689145468459	-0.6795203985995908	-0.001701314887157996	0.5182429921539171	-0.3937822449134936	0.039233983226544165	0.4843565915771722	-0.11873947010434117	0.09430545489006995	0.4130627887038102	-0.040164745909891185	0.09068804321743684	0.40682809543854026	0.0055386073667295374	0.049692601522853486	0.49846989927303	0.014179105699213912
202	4.488888888888889	0.33038873864720736	0.5338097701087006	-0.14418959773551052	0.35807294139226137	0.6602995901458375	0.2789851126582128	0.3746230357964293	0.7344625180187583	0.7198308106740245	0.33358767882441487	0.5301956727113323	0.7541622507304129	0.40170498022056994	0.5429726228791092	0.7503295558134915	0.3498162642631267	0.8387127736031286	0.7890587198257166	0.1228856196460336	0.5517000689593288	-0.1285564425554359	0.14420049624744485	0.6363879172331062	0.30667999887909503	0.1688061310882526	0.7247978065250712	0.7181876590549424	0.19406175825646244	0.5476623911654466	0.7669876287833086	0.135199522962516	0.5631153913873361	0.7669803220937383	0.18969786303313038	0.7824058853806071	0.7800681302520293	0.17260451707247124	0.4664723878953893	-0.7588425157246638	0.11380433918527294	0.34255283295740363	-1.0180744156852204	0.10805025111804367	0.3326508721867545	-0.8467135173704676	0.3531029724599898	0.46195946323945636	-0.6968988159481518	0.4261596246638446	0.49686336467822	-0.41605343879092754	0.4101881817117739	0.4409348228152605	-0.12555796620677193	0.33993138744373974	0.43480415213371304	-0.0056105766623719905	0.35454111919963954	0.40971883801940456	0.0032216716068613404	0.40226250922572215	0.5026460184171234	0.013825222124293761	0.013407419971277729	0.5283373441665201	-0.6794883060660761	-0.0038929553479263514	0.5239666975088619	-0.39511401571008514	0.03900712047312681	0.4849884517380308	-0.11861217963507188	0.09425201592295958	0.4132487466133186	-0.041617478258326776	0.09027317150802337	0.40665666360209024	0.004367162886214408	0.0495427298579419	0.4983957331156582	0.011615382864441309
203	4.511111111111111	0.33044548485844294	0.533712549246858	-0.14414793157390582	0.35850850317386784	0.6609597803274854	0.28061364811563716	0.37462833572900006	0.7344934634516098	0.7198178934542117	0.3336426397993993	0.5304329308545359	0.754226845224684	0.40223289783505206	0.5434841786541438	0.7530782448797622	0.34984647161725535	0.8387829124981765	0.7891532133747214	0.12294912190301291	0.5516519854285058	-0.12857564711179048	0.14506936443972246	0.6403372879450164	0.307751683520783	0.168858508627569	0.7250383883370614	0.7183060056614909	0.19543024849109628	0.5515775663119744	0.7677941753954557	0.13640302454221423	0.5595827611915107	0.7650964409961528	0.19001098176439804	0.7826549478335811	0.7802075507923111	0.17256770193291476	0.46646744825581393	-0.7588570427392747	0.11352598633298255	0.3423787244382962	-1.0183292644010258	0.10860111177783963	0.33497048240453575	-0.847499243431565	0.3530765492088081	0.46193076721499243	-0.696936608795368	0.42738323585277005	0.49719012460525214	-0.41671035711926285	0.40995107269666237	0.44064123304973235	-0.12571928238489366	0.3399585888081906	0.4347564034872146	-0.005659360705972522	0.35450024897344506	0.4097270422059054	0.0032178360373240054	0.4014722061615669	0.503032019351985	0.01218783552805644	0.01273342278261678	0.5249224649054651	-0.6793577808215006	-0.005297970456348209	0.5278049541508308	-0.3960535473729385	0.03916204777606517	0.48444062247156316	-0.11873634001073691	0.09428961191992384	0.41330796518298774	-0.04256511943599962	0.08986338179515296	0.40599733090381496	0.0024946312435333855	0.04958383535929105	0.49825172652754374	0.010567486429660598
204	4.533333333333333	0.3304975433749574	0.5337223541598637	-0.14404431096191123	0.3589985783619367	0.661700614136813	0.28248037944939525	0.3746324109993559	0.7345552847267027	0.7198493125288586	0.3335691918707445	0.5304757015101427	0.7543380013457238	0.4026515370072161	0.5442948560288963	0.7565813963402163	0.3498367633484474	0.8388448382544358	0.7891490244269409	0.12294942569022854	0.5513765596042333	-0.1285954069666349	0.14638924855407814	0.6468046338868293	0.3095559879833724	0.16893310564688557	0.725316320769399	0.7184474494775589	0.19640560587032294	0.552153493514688	0.7685240463137788	0.13714432017172	0.5574327768159126	0.7639037175566681	0.19032613835962947	0.7827966538857288	0.7802963113006087	0.17275346856574916	0.4664981759785447	-0.7576009495973164	0.11235588362043034	0.34213970778645075	-1.0176247368388887	0.10857589948708347	0.3412850949669226	-0.8436138104875412	0.3530549275870445	0.46195381091576165	-0.6969914439517263	0.4296253923703288	0.49800375092370786	-0.41746309572153306	0.4095248465847819	0.44017480383625246	-0.12683569136029327	0.3399262199908684	0.43458088992603444	-0.005688143094118881	0.3543730020026496	0.40971901720190806	0.003116311616793351	0.40061599147735905	0.5027785703667101	0.011195568445679493	0.011569772417445062	0.519667971332949	-0.6791135210611687	-0.005479771282906432	0.5285308839233269	-0.3958800150282018	0.03917685028059073	0.48394651762879265	-0.11878377825147701	0.09431441865187667	0.4132880855711698	-0.04271581422075697	0.08966389838082613	0.4054683099979272	0.000442316553450208	0.0496482254565382	0.4980906441336891	0.010452744841620981
205	4.555555555555555	0.3304777009682357	0.5337715213233373	-0.14422396027618278	0.35896011943206646	0.6616705890408294	0.28230817898984956	0.3746360454545766	0.7346130977021968	0.719911802655625	0.3334381955414029	0.5304029781818187	0.7544347043470633	0.4026793883661879	0.5464126980378864	0.7575270177412415	0.34983526789149205	0.8389021660534419	0.7891806483088151	0.12296151190047215	0.5511831229415496	-0.128607889565186	0.14725982382359493	0.6512028681830637	0.3108019300630902	0.1689963978022679	0.7254842460711037	0.7185298428241018	0.1968011365738849	0.5515547298090459	0.7682211981931826	0.13639814613401222	0.5599728224408382	0.7651895978145152	0.19029727739489158	0.7826420770486331	0.7803350555217917	0.173029436940907	0.46655453891808174	-0.7558273400848358	0.11060435314461549	0.3417424257617325	-1.0164320214774925	0.10755673375256015	0.34754121538107097	-0.8382810389161401	0.35304329789949096	0.46201059506130926	-0.6970414933791824	0.43089151839017853	0.49824252225656845	-0.4194009744021918	0.4092181721183606	0.43986471325777776	-0.12857916494970745	0.339766300573785	0.43447484266790376	-0.0058024655762426176	0.3542205405574494	0.40964537208607193	0.0029972075811929596	0.4001899677085923	0.5035029408533838	0.01095423444747027	0.01077447186750946	0.5160068967116432	-0.6788857707952483	-0.00535169440922789	0.5280329967662097	-0.39554480135218084	0.03907889355258996	0.4835693158790071	-0.11877678992731722	0.09429606974710765	0.4132823596767587	-0.042600775296811284	0.08965901020340665	0.40535981959920514	-0.0013988427637198152	0.04944859501135395	0.49792013553153136	0.01048297078107682
206	4.5777777777777775	0.33033169488473413	0.5336923617284803	-0.1449605803533342	0.35853207160525513	0.6610724547238791	0.2806480805687519	0.37464755774989744	0.7346188827516753	0.7199612590574063	0.3333527511628921	0.5302719575284562	0.754444379022333	0.4028235456825603	0.5505230242734105	0.7562248287319442	0.34984692559852204	0.8389064442799239	0.7892231268841232	0.12298321682336373	0.5512506113121293	-0.12863538437930766	0.14742490665692587	0.6519319525411268	0.31101498150788465	0.16900728658799938	0.72549105745644	0.7185198596657559	0.19658898162203045	0.5511961415382874	0.7662271187179337	0.1352159331431378	0.5637714270388148	0.767191851486613	0.19011472565807827	0.7823888982003775	0.7803384450430544	0.17320209239592252	0.4665982896555372	-0.7547210464875332	0.10944832397527601	0.3414045205893245	-1.0158731810076127	0.10660089340252596	0.3506202147917413	-0.8353691867186206	0.35304108875850426	0.46206683544576554	-0.697065321879777	0.4306718106389127	0.497757081452016	-0.4218704643388871	0.40916704492403366	0.4398122102686352	-0.1297393468286151	0.3395830889839268	0.4344761380076506	-0.005969433276076635	0.3541193468807723	0.40951904263608296	0.0029736572609599873	0.4001220838162596	0.5045266513104562	0.011197421961300899	0.010632191616598794	0.5153252484708135	-0.6787987055952497	-0.005412569394219569	0.5275971703880344	-0.3954901623847563	0.039008227097215284	0.48361733781633476	-0.11876257041004223	0.09429221321450301	0.41330608405848385	-0.04255898270933967	0.08971073064358255	0.4054243239121208	-0.0024534107461386206	0.04923000529043012	0.49779020739003044	0.011287073388218608
